STARTFONT 2.1
FONT IImperialism-Taipan-Regular
SIZE 8 75 75
FONTBOUNDINGBOX 7 8 0 0
STARTPROPERTIES 5
FONT_ASCENT 8
FONT_DESCENT 0
FAMILY_NAME "IImperialism Taipan Regular"
WEIGHT_NAME "Regular"
SPACING "M"
ENDPROPERTIES
CHARS 96
STARTCHAR SPACE
ENCODING 32
SWIDTH 500 0
DWIDTH 8 0
BBX 7 8 0 0
BITMAP
00
00
00
00
00
00
00
00
ENDCHAR
STARTCHAR !
ENCODING 33
SWIDTH 500 0
DWIDTH 8 0
BBX 7 8 0 0
BITMAP
08
08
08
08
00
00
08
00
ENDCHAR
STARTCHAR "
ENCODING 34
SWIDTH 500 0
DWIDTH 8 0
BBX 7 8 0 0
BITMAP
36
36
36
00
00
00
00
00
ENDCHAR
STARTCHAR #
ENCODING 35
SWIDTH 500 0
DWIDTH 8 0
BBX 7 8 0 0
BITMAP
14
14
3E
14
3E
14
14
00
ENDCHAR
STARTCHAR $
ENCODING 36
SWIDTH 500 0
DWIDTH 8 0
BBX 7 8 0 0
BITMAP
08
1E
28
1C
0A
3C
08
00
ENDCHAR
STARTCHAR %
ENCODING 37
SWIDTH 500 0
DWIDTH 8 0
BBX 7 8 0 0
BITMAP
00
62
64
08
10
26
46
00
ENDCHAR
STARTCHAR &
ENCODING 38
SWIDTH 500 0
DWIDTH 8 0
BBX 7 8 0 0
BITMAP
08
14
14
10
28
24
1A
00
ENDCHAR
STARTCHAR '
ENCODING 39
SWIDTH 500 0
DWIDTH 8 0
BBX 7 8 0 0
BITMAP
18
18
18
00
00
00
00
00
ENDCHAR
STARTCHAR (
ENCODING 40
SWIDTH 500 0
DWIDTH 8 0
BBX 7 8 0 0
BITMAP
04
08
10
10
10
08
04
00
ENDCHAR
STARTCHAR )
ENCODING 41
SWIDTH 500 0
DWIDTH 8 0
BBX 7 8 0 0
BITMAP
10
08
04
04
04
08
10
00
ENDCHAR
STARTCHAR *
ENCODING 42
SWIDTH 500 0
DWIDTH 8 0
BBX 7 8 0 0
BITMAP
08
2A
1C
3E
1C
2A
08
00
ENDCHAR
STARTCHAR +
ENCODING 43
SWIDTH 500 0
DWIDTH 8 0
BBX 7 8 0 0
BITMAP
00
08
08
3E
08
08
00
00
ENDCHAR
STARTCHAR ,
ENCODING 44
SWIDTH 500 0
DWIDTH 8 0
BBX 7 8 0 0
BITMAP
00
00
00
00
00
08
08
10
ENDCHAR
STARTCHAR -
ENCODING 45
SWIDTH 500 0
DWIDTH 8 0
BBX 7 8 0 0
BITMAP
00
00
00
3E
00
00
00
00
ENDCHAR
STARTCHAR .
ENCODING 46
SWIDTH 500 0
DWIDTH 8 0
BBX 7 8 0 0
BITMAP
00
00
00
00
00
18
18
00
ENDCHAR
STARTCHAR /
ENCODING 47
SWIDTH 500 0
DWIDTH 8 0
BBX 7 8 0 0
BITMAP
00
02
04
08
10
20
40
00
ENDCHAR
STARTCHAR 0
ENCODING 48
SWIDTH 500 0
DWIDTH 8 0
BBX 7 8 0 0
BITMAP
00
1C
22
22
22
22
1C
00
ENDCHAR
STARTCHAR 1
ENCODING 49
SWIDTH 500 0
DWIDTH 8 0
BBX 7 8 0 0
BITMAP
00
08
18
08
08
08
3E
00
ENDCHAR
STARTCHAR 2
ENCODING 50
SWIDTH 500 0
DWIDTH 8 0
BBX 7 8 0 0
BITMAP
00
1C
22
06
18
20
3E
00
ENDCHAR
STARTCHAR 3
ENCODING 51
SWIDTH 500 0
DWIDTH 8 0
BBX 7 8 0 0
BITMAP
00
1C
22
0C
02
22
1C
00
ENDCHAR
STARTCHAR 4
ENCODING 52
SWIDTH 500 0
DWIDTH 8 0
BBX 7 8 0 0
BITMAP
00
24
24
24
3E
04
04
00
ENDCHAR
STARTCHAR 5
ENCODING 53
SWIDTH 500 0
DWIDTH 8 0
BBX 7 8 0 0
BITMAP
00
3E
20
3C
02
22
1C
00
ENDCHAR
STARTCHAR 6
ENCODING 54
SWIDTH 500 0
DWIDTH 8 0
BBX 7 8 0 0
BITMAP
00
1C
20
3C
22
22
1C
00
ENDCHAR
STARTCHAR 7
ENCODING 55
SWIDTH 500 0
DWIDTH 8 0
BBX 7 8 0 0
BITMAP
00
3E
22
04
08
08
08
00
ENDCHAR
STARTCHAR 8
ENCODING 56
SWIDTH 500 0
DWIDTH 8 0
BBX 7 8 0 0
BITMAP
00
1C
22
1C
22
22
1C
00
ENDCHAR
STARTCHAR 9
ENCODING 57
SWIDTH 500 0
DWIDTH 8 0
BBX 7 8 0 0
BITMAP
00
1C
22
1E
02
04
18
00
ENDCHAR
STARTCHAR :
ENCODING 58
SWIDTH 500 0
DWIDTH 8 0
BBX 7 8 0 0
BITMAP
00
00
08
00
00
08
00
00
ENDCHAR
STARTCHAR ;
ENCODING 59
SWIDTH 500 0
DWIDTH 8 0
BBX 7 8 0 0
BITMAP
00
00
08
00
00
08
08
10
ENDCHAR
STARTCHAR <
ENCODING 60
SWIDTH 500 0
DWIDTH 8 0
BBX 7 8 0 0
BITMAP
06
08
10
20
10
08
06
00
ENDCHAR
STARTCHAR =
ENCODING 61
SWIDTH 500 0
DWIDTH 8 0
BBX 7 8 0 0
BITMAP
00
00
3E
00
3E
00
00
00
ENDCHAR
STARTCHAR >
ENCODING 62
SWIDTH 500 0
DWIDTH 8 0
BBX 7 8 0 0
BITMAP
30
08
04
02
04
08
30
00
ENDCHAR
STARTCHAR ?
ENCODING 63
SWIDTH 500 0
DWIDTH 8 0
BBX 7 8 0 0
BITMAP
1C
22
02
04
08
00
08
00
ENDCHAR
STARTCHAR @
ENCODING 64
SWIDTH 500 0
DWIDTH 8 0
BBX 7 8 0 0
BITMAP
1C
22
2A
36
2C
20
1E
00
ENDCHAR
STARTCHAR A
ENCODING 65
SWIDTH 500 0
DWIDTH 8 0
BBX 7 8 0 0
BITMAP
30
48
14
22
3E
22
41
00
ENDCHAR
STARTCHAR B
ENCODING 66
SWIDTH 500 0
DWIDTH 8 0
BBX 7 8 0 0
BITMAP
5C
22
42
7C
42
22
5C
00
ENDCHAR
STARTCHAR C
ENCODING 67
SWIDTH 500 0
DWIDTH 8 0
BBX 7 8 0 0
BITMAP
1C
22
54
50
50
22
1C
00
ENDCHAR
STARTCHAR D
ENCODING 68
SWIDTH 500 0
DWIDTH 8 0
BBX 7 8 0 0
BITMAP
58
64
42
42
42
64
58
00
ENDCHAR
STARTCHAR E
ENCODING 69
SWIDTH 500 0
DWIDTH 8 0
BBX 7 8 0 0
BITMAP
5C
22
40
78
40
22
5C
00
ENDCHAR
STARTCHAR F
ENCODING 70
SWIDTH 500 0
DWIDTH 8 0
BBX 7 8 0 0
BITMAP
5C
22
20
78
20
20
40
00
ENDCHAR
STARTCHAR G
ENCODING 71
SWIDTH 500 0
DWIDTH 8 0
BBX 7 8 0 0
BITMAP
1C
22
40
5E
62
3E
02
06
ENDCHAR
STARTCHAR H
ENCODING 72
SWIDTH 500 0
DWIDTH 8 0
BBX 7 8 0 0
BITMAP
41
22
22
3E
22
22
41
00
ENDCHAR
STARTCHAR I
ENCODING 73
SWIDTH 500 0
DWIDTH 8 0
BBX 7 8 0 0
BITMAP
01
3E
48
08
09
3E
40
00
ENDCHAR
STARTCHAR J
ENCODING 74
SWIDTH 500 0
DWIDTH 8 0
BBX 7 8 0 0
BITMAP
01
02
02
02
22
44
38
00
ENDCHAR
STARTCHAR K
ENCODING 75
SWIDTH 500 0
DWIDTH 8 0
BBX 7 8 0 0
BITMAP
42
24
28
70
28
24
42
00
ENDCHAR
STARTCHAR L
ENCODING 76
SWIDTH 500 0
DWIDTH 8 0
BBX 7 8 0 0
BITMAP
18
24
20
20
20
21
5E
00
ENDCHAR
STARTCHAR M
ENCODING 77
SWIDTH 500 0
DWIDTH 8 0
BBX 7 8 0 0
BITMAP
54
2A
2A
6A
2A
2A
40
00
ENDCHAR
STARTCHAR N
ENCODING 78
SWIDTH 500 0
DWIDTH 8 0
BBX 7 8 0 0
BITMAP
41
32
2A
6A
2A
2A
44
00
ENDCHAR
STARTCHAR O
ENCODING 79
SWIDTH 500 0
DWIDTH 8 0
BBX 7 8 0 0
BITMAP
1C
22
51
51
51
22
1C
00
ENDCHAR
STARTCHAR P
ENCODING 80
SWIDTH 500 0
DWIDTH 8 0
BBX 7 8 0 0
BITMAP
5C
22
22
7C
20
20
40
00
ENDCHAR
STARTCHAR Q
ENCODING 81
SWIDTH 500 0
DWIDTH 8 0
BBX 7 8 0 0
BITMAP
1C
22
51
51
55
22
1D
01
ENDCHAR
STARTCHAR R
ENCODING 82
SWIDTH 500 0
DWIDTH 8 0
BBX 7 8 0 0
BITMAP
5C
22
22
7C
24
22
42
00
ENDCHAR
STARTCHAR S
ENCODING 83
SWIDTH 500 0
DWIDTH 8 0
BBX 7 8 0 0
BITMAP
01
3E
40
3E
01
3E
40
00
ENDCHAR
STARTCHAR T
ENCODING 84
SWIDTH 500 0
DWIDTH 8 0
BBX 7 8 0 0
BITMAP
01
7E
30
50
50
21
1E
00
ENDCHAR
STARTCHAR U
ENCODING 85
SWIDTH 500 0
DWIDTH 8 0
BBX 7 8 0 0
BITMAP
21
52
12
12
12
12
0C
00
ENDCHAR
STARTCHAR V
ENCODING 86
SWIDTH 500 0
DWIDTH 8 0
BBX 7 8 0 0
BITMAP
26
59
11
11
11
0A
04
00
ENDCHAR
STARTCHAR W
ENCODING 87
SWIDTH 500 0
DWIDTH 8 0
BBX 7 8 0 0
BITMAP
40
2E
29
29
29
2A
14
00
ENDCHAR
STARTCHAR X
ENCODING 88
SWIDTH 500 0
DWIDTH 8 0
BBX 7 8 0 0
BITMAP
21
52
0C
08
18
25
42
00
ENDCHAR
STARTCHAR Y
ENCODING 89
SWIDTH 500 0
DWIDTH 8 0
BBX 7 8 0 0
BITMAP
21
52
12
12
0D
41
3E
00
ENDCHAR
STARTCHAR Z
ENCODING 90
SWIDTH 500 0
DWIDTH 8 0
BBX 7 8 0 0
BITMAP
3E
02
04
08
10
20
3E
00
ENDCHAR
STARTCHAR [
ENCODING 91
SWIDTH 500 0
DWIDTH 8 0
BBX 7 8 0 0
BITMAP
3C
20
20
20
20
20
3C
00
ENDCHAR
STARTCHAR BACKSLASH
ENCODING 92
SWIDTH 500 0
DWIDTH 8 0
BBX 7 8 0 0
BITMAP
00
40
20
10
08
04
02
00
ENDCHAR
STARTCHAR ]
ENCODING 93
SWIDTH 500 0
DWIDTH 8 0
BBX 7 8 0 0
BITMAP
3C
04
04
04
04
04
3C
00
ENDCHAR
STARTCHAR ^
ENCODING 94
SWIDTH 500 0
DWIDTH 8 0
BBX 7 8 0 0
BITMAP
08
1C
2A
08
08
08
08
00
ENDCHAR
STARTCHAR _
ENCODING 95
SWIDTH 500 0
DWIDTH 8 0
BBX 7 8 0 0
BITMAP
00
00
00
00
00
00
00
7F
ENDCHAR
STARTCHAR `
ENCODING 96
SWIDTH 500 0
DWIDTH 8 0
BBX 7 8 0 0
BITMAP
10
08
04
00
00
00
00
00
ENDCHAR
STARTCHAR a
ENCODING 97
SWIDTH 500 0
DWIDTH 8 0
BBX 7 8 0 0
BITMAP
00
00
38
04
3C
44
3A
00
ENDCHAR
STARTCHAR b
ENCODING 98
SWIDTH 500 0
DWIDTH 8 0
BBX 7 8 0 0
BITMAP
20
20
2C
32
22
32
2C
00
ENDCHAR
STARTCHAR c
ENCODING 99
SWIDTH 500 0
DWIDTH 8 0
BBX 7 8 0 0
BITMAP
00
00
1C
22
20
22
1C
00
ENDCHAR
STARTCHAR d
ENCODING 100
SWIDTH 500 0
DWIDTH 8 0
BBX 7 8 0 0
BITMAP
02
02
1A
26
22
26
1A
00
ENDCHAR
STARTCHAR e
ENCODING 101
SWIDTH 500 0
DWIDTH 8 0
BBX 7 8 0 0
BITMAP
00
00
1C
22
3E
20
1C
00
ENDCHAR
STARTCHAR f
ENCODING 102
SWIDTH 500 0
DWIDTH 8 0
BBX 7 8 0 0
BITMAP
0C
12
10
7C
10
10
10
00
ENDCHAR
STARTCHAR g
ENCODING 103
SWIDTH 500 0
DWIDTH 8 0
BBX 7 8 0 0
BITMAP
00
00
1A
26
26
1A
02
1C
ENDCHAR
STARTCHAR h
ENCODING 104
SWIDTH 500 0
DWIDTH 8 0
BBX 7 8 0 0
BITMAP
20
20
2C
32
22
22
22
00
ENDCHAR
STARTCHAR i
ENCODING 105
SWIDTH 500 0
DWIDTH 8 0
BBX 7 8 0 0
BITMAP
08
00
18
08
08
08
1C
00
ENDCHAR
STARTCHAR j
ENCODING 106
SWIDTH 500 0
DWIDTH 8 0
BBX 7 8 0 0
BITMAP
02
00
06
02
02
02
22
1C
ENDCHAR
STARTCHAR k
ENCODING 107
SWIDTH 500 0
DWIDTH 8 0
BBX 7 8 0 0
BITMAP
20
20
22
24
28
34
22
00
ENDCHAR
STARTCHAR l
ENCODING 108
SWIDTH 500 0
DWIDTH 8 0
BBX 7 8 0 0
BITMAP
18
08
08
08
08
08
1C
00
ENDCHAR
STARTCHAR m
ENCODING 109
SWIDTH 500 0
DWIDTH 8 0
BBX 7 8 0 0
BITMAP
00
00
7C
2A
2A
2A
2A
00
ENDCHAR
STARTCHAR n
ENCODING 110
SWIDTH 500 0
DWIDTH 8 0
BBX 7 8 0 0
BITMAP
00
00
2C
32
22
22
22
00
ENDCHAR
STARTCHAR o
ENCODING 111
SWIDTH 500 0
DWIDTH 8 0
BBX 7 8 0 0
BITMAP
00
00
1C
22
22
22
1C
00
ENDCHAR
STARTCHAR p
ENCODING 112
SWIDTH 500 0
DWIDTH 8 0
BBX 7 8 0 0
BITMAP
00
00
2C
32
32
2C
20
20
ENDCHAR
STARTCHAR q
ENCODING 113
SWIDTH 500 0
DWIDTH 8 0
BBX 7 8 0 0
BITMAP
00
00
1A
26
26
1A
02
02
ENDCHAR
STARTCHAR r
ENCODING 114
SWIDTH 500 0
DWIDTH 8 0
BBX 7 8 0 0
BITMAP
00
00
2C
32
20
20
20
00
ENDCHAR
STARTCHAR s
ENCODING 115
SWIDTH 500 0
DWIDTH 8 0
BBX 7 8 0 0
BITMAP
00
00
1E
20
1C
02
3C
00
ENDCHAR
STARTCHAR t
ENCODING 116
SWIDTH 500 0
DWIDTH 8 0
BBX 7 8 0 0
BITMAP
10
10
7C
10
10
12
0C
00
ENDCHAR
STARTCHAR u
ENCODING 117
SWIDTH 500 0
DWIDTH 8 0
BBX 7 8 0 0
BITMAP
00
00
22
22
22
26
1A
00
ENDCHAR
STARTCHAR v
ENCODING 118
SWIDTH 500 0
DWIDTH 8 0
BBX 7 8 0 0
BITMAP
00
00
22
22
22
14
08
00
ENDCHAR
STARTCHAR w
ENCODING 119
SWIDTH 500 0
DWIDTH 8 0
BBX 7 8 0 0
BITMAP
00
00
22
2A
2A
2A
36
00
ENDCHAR
STARTCHAR x
ENCODING 120
SWIDTH 500 0
DWIDTH 8 0
BBX 7 8 0 0
BITMAP
00
00
22
14
08
14
22
00
ENDCHAR
STARTCHAR y
ENCODING 121
SWIDTH 500 0
DWIDTH 8 0
BBX 7 8 0 0
BITMAP
00
00
22
22
22
1E
02
1C
ENDCHAR
STARTCHAR z
ENCODING 122
SWIDTH 500 0
DWIDTH 8 0
BBX 7 8 0 0
BITMAP
00
00
3E
04
08
10
3E
00
ENDCHAR
STARTCHAR {
ENCODING 123
SWIDTH 500 0
DWIDTH 8 0
BBX 7 8 0 0
BITMAP
0E
10
10
20
10
10
0E
00
ENDCHAR
STARTCHAR |
ENCODING 124
SWIDTH 500 0
DWIDTH 8 0
BBX 7 8 0 0
BITMAP
08
08
08
08
08
08
08
08
ENDCHAR
STARTCHAR }
ENCODING 125
SWIDTH 500 0
DWIDTH 8 0
BBX 7 8 0 0
BITMAP
38
04
04
02
04
04
38
00
ENDCHAR
STARTCHAR ~
ENCODING 126
SWIDTH 500 0
DWIDTH 8 0
BBX 7 8 0 0
BITMAP
14
28
00
00
00
00
00
00
ENDCHAR
STARTCHAR FULL_BLOCK
ENCODING 127
SWIDTH 500 0
DWIDTH 8 0
BBX 7 8 0 0
BITMAP
7F
7F
7F
7F
7F
7F
7F
7F
ENDCHAR
ENDFONT
