STARTFONT 2.1
FONT IImperialism-Taipan-Bold
SIZE 8 75 75
FONTBOUNDINGBOX 7 8 0 0
STARTPROPERTIES 5
FONT_ASCENT 8
FONT_DESCENT 0
FAMILY_NAME "IImperialism Taipan Bold"
WEIGHT_NAME "Bold"
SPACING "M"
ENDPROPERTIES
CHARS 96
STARTCHAR SPACE
ENCODING 32
SWIDTH 500 0
DWIDTH 8 0
BBX 7 8 0 0
BITMAP
00
00
00
00
00
00
00
00
ENDCHAR
STARTCHAR !
ENCODING 33
SWIDTH 500 0
DWIDTH 8 0
BBX 7 8 0 0
BITMAP
18
18
18
18
00
18
18
00
ENDCHAR
STARTCHAR "
ENCODING 34
SWIDTH 500 0
DWIDTH 8 0
BBX 7 8 0 0
BITMAP
36
36
12
00
00
00
00
00
ENDCHAR
STARTCHAR #
ENCODING 35
SWIDTH 500 0
DWIDTH 8 0
BBX 7 8 0 0
BITMAP
14
14
3E
14
3E
14
14
00
ENDCHAR
STARTCHAR $
ENCODING 36
SWIDTH 500 0
DWIDTH 8 0
BBX 7 8 0 0
BITMAP
3E
6A
78
3C
0E
4E
7C
08
ENDCHAR
STARTCHAR %
ENCODING 37
SWIDTH 500 0
DWIDTH 8 0
BBX 7 8 0 0
BITMAP
62
64
08
10
26
46
00
00
ENDCHAR
STARTCHAR &
ENCODING 38
SWIDTH 500 0
DWIDTH 8 0
BBX 7 8 0 0
BITMAP
7C
6C
60
2E
6E
6C
7C
00
ENDCHAR
STARTCHAR '
ENCODING 39
SWIDTH 500 0
DWIDTH 8 0
BBX 7 8 0 0
BITMAP
30
30
10
00
00
00
00
00
ENDCHAR
STARTCHAR (
ENCODING 40
SWIDTH 500 0
DWIDTH 8 0
BBX 7 8 0 0
BITMAP
04
08
10
10
10
08
04
00
ENDCHAR
STARTCHAR )
ENCODING 41
SWIDTH 500 0
DWIDTH 8 0
BBX 7 8 0 0
BITMAP
10
08
04
04
04
08
10
00
ENDCHAR
STARTCHAR *
ENCODING 42
SWIDTH 500 0
DWIDTH 8 0
BBX 7 8 0 0
BITMAP
08
1C
36
1C
08
00
00
00
ENDCHAR
STARTCHAR +
ENCODING 43
SWIDTH 500 0
DWIDTH 8 0
BBX 7 8 0 0
BITMAP
00
08
08
3E
08
08
00
00
ENDCHAR
STARTCHAR ,
ENCODING 44
SWIDTH 500 0
DWIDTH 8 0
BBX 7 8 0 0
BITMAP
00
00
00
00
00
08
08
10
ENDCHAR
STARTCHAR -
ENCODING 45
SWIDTH 500 0
DWIDTH 8 0
BBX 7 8 0 0
BITMAP
00
00
00
3E
00
00
00
00
ENDCHAR
STARTCHAR .
ENCODING 46
SWIDTH 500 0
DWIDTH 8 0
BBX 7 8 0 0
BITMAP
00
00
00
00
00
18
18
00
ENDCHAR
STARTCHAR /
ENCODING 47
SWIDTH 500 0
DWIDTH 8 0
BBX 7 8 0 0
BITMAP
00
02
04
08
10
20
40
00
ENDCHAR
STARTCHAR 0
ENCODING 48
SWIDTH 500 0
DWIDTH 8 0
BBX 7 8 0 0
BITMAP
3E
22
36
36
36
22
3E
00
ENDCHAR
STARTCHAR 1
ENCODING 49
SWIDTH 500 0
DWIDTH 8 0
BBX 7 8 0 0
BITMAP
1C
14
04
1C
1C
1C
1C
00
ENDCHAR
STARTCHAR 2
ENCODING 50
SWIDTH 500 0
DWIDTH 8 0
BBX 7 8 0 0
BITMAP
3C
66
4E
1C
38
7E
7E
00
ENDCHAR
STARTCHAR 3
ENCODING 51
SWIDTH 500 0
DWIDTH 8 0
BBX 7 8 0 0
BITMAP
7E
66
06
1E
06
66
7E
00
ENDCHAR
STARTCHAR 4
ENCODING 52
SWIDTH 500 0
DWIDTH 8 0
BBX 7 8 0 0
BITMAP
74
74
64
7E
7E
0C
1C
00
ENDCHAR
STARTCHAR 5
ENCODING 53
SWIDTH 500 0
DWIDTH 8 0
BBX 7 8 0 0
BITMAP
7E
60
7C
7E
06
66
7C
00
ENDCHAR
STARTCHAR 6
ENCODING 54
SWIDTH 500 0
DWIDTH 8 0
BBX 7 8 0 0
BITMAP
3E
66
60
7C
66
66
3C
00
ENDCHAR
STARTCHAR 7
ENCODING 55
SWIDTH 500 0
DWIDTH 8 0
BBX 7 8 0 0
BITMAP
7E
66
46
0C
1C
38
38
00
ENDCHAR
STARTCHAR 8
ENCODING 56
SWIDTH 500 0
DWIDTH 8 0
BBX 7 8 0 0
BITMAP
7E
66
7E
3C
7E
66
7E
00
ENDCHAR
STARTCHAR 9
ENCODING 57
SWIDTH 500 0
DWIDTH 8 0
BBX 7 8 0 0
BITMAP
3E
66
66
3E
06
66
7E
00
ENDCHAR
STARTCHAR :
ENCODING 58
SWIDTH 500 0
DWIDTH 8 0
BBX 7 8 0 0
BITMAP
00
00
30
30
00
30
30
00
ENDCHAR
STARTCHAR ;
ENCODING 59
SWIDTH 500 0
DWIDTH 8 0
BBX 7 8 0 0
BITMAP
00
00
30
30
00
30
30
10
ENDCHAR
STARTCHAR <
ENCODING 60
SWIDTH 500 0
DWIDTH 8 0
BBX 7 8 0 0
BITMAP
00
12
24
48
24
12
00
00
ENDCHAR
STARTCHAR =
ENCODING 61
SWIDTH 500 0
DWIDTH 8 0
BBX 7 8 0 0
BITMAP
00
00
3E
00
3E
00
00
00
ENDCHAR
STARTCHAR >
ENCODING 62
SWIDTH 500 0
DWIDTH 8 0
BBX 7 8 0 0
BITMAP
00
48
24
12
24
48
00
00
ENDCHAR
STARTCHAR ?
ENCODING 63
SWIDTH 500 0
DWIDTH 8 0
BBX 7 8 0 0
BITMAP
3E
36
06
1E
1E
00
18
18
ENDCHAR
STARTCHAR @
ENCODING 64
SWIDTH 500 0
DWIDTH 8 0
BBX 7 8 0 0
BITMAP
1C
22
2A
36
2C
20
1E
00
ENDCHAR
STARTCHAR A
ENCODING 65
SWIDTH 500 0
DWIDTH 8 0
BBX 7 8 0 0
BITMAP
3C
7E
42
7E
42
66
66
00
ENDCHAR
STARTCHAR B
ENCODING 66
SWIDTH 500 0
DWIDTH 8 0
BBX 7 8 0 0
BITMAP
7C
66
6E
6C
6E
66
7C
00
ENDCHAR
STARTCHAR C
ENCODING 67
SWIDTH 500 0
DWIDTH 8 0
BBX 7 8 0 0
BITMAP
3C
66
66
60
66
66
3C
00
ENDCHAR
STARTCHAR D
ENCODING 68
SWIDTH 500 0
DWIDTH 8 0
BBX 7 8 0 0
BITMAP
7C
66
76
76
76
66
7C
00
ENDCHAR
STARTCHAR E
ENCODING 69
SWIDTH 500 0
DWIDTH 8 0
BBX 7 8 0 0
BITMAP
7E
66
60
7E
60
66
7E
00
ENDCHAR
STARTCHAR F
ENCODING 70
SWIDTH 500 0
DWIDTH 8 0
BBX 7 8 0 0
BITMAP
7E
66
60
7E
60
70
78
00
ENDCHAR
STARTCHAR G
ENCODING 71
SWIDTH 500 0
DWIDTH 8 0
BBX 7 8 0 0
BITMAP
3C
66
66
60
6E
66
3C
00
ENDCHAR
STARTCHAR H
ENCODING 72
SWIDTH 500 0
DWIDTH 8 0
BBX 7 8 0 0
BITMAP
6E
6E
66
7E
66
76
76
00
ENDCHAR
STARTCHAR I
ENCODING 73
SWIDTH 500 0
DWIDTH 8 0
BBX 7 8 0 0
BITMAP
1C
1C
1C
1C
1C
1C
1C
00
ENDCHAR
STARTCHAR J
ENCODING 74
SWIDTH 500 0
DWIDTH 8 0
BBX 7 8 0 0
BITMAP
1E
1E
0E
4E
66
76
3C
00
ENDCHAR
STARTCHAR K
ENCODING 75
SWIDTH 500 0
DWIDTH 8 0
BBX 7 8 0 0
BITMAP
76
76
66
7C
66
76
76
00
ENDCHAR
STARTCHAR L
ENCODING 76
SWIDTH 500 0
DWIDTH 8 0
BBX 7 8 0 0
BITMAP
78
78
70
72
66
6E
7E
00
ENDCHAR
STARTCHAR M
ENCODING 77
SWIDTH 500 0
DWIDTH 8 0
BBX 7 8 0 0
BITMAP
7E
7E
5A
5A
42
66
66
00
ENDCHAR
STARTCHAR N
ENCODING 78
SWIDTH 500 0
DWIDTH 8 0
BBX 7 8 0 0
BITMAP
6E
66
72
7E
4E
66
76
00
ENDCHAR
STARTCHAR O
ENCODING 79
SWIDTH 500 0
DWIDTH 8 0
BBX 7 8 0 0
BITMAP
1C
3E
26
36
32
3E
1C
00
ENDCHAR
STARTCHAR P
ENCODING 80
SWIDTH 500 0
DWIDTH 8 0
BBX 7 8 0 0
BITMAP
7C
66
6E
6C
60
70
70
00
ENDCHAR
STARTCHAR Q
ENCODING 81
SWIDTH 500 0
DWIDTH 8 0
BBX 7 8 0 0
BITMAP
38
7C
4C
6C
64
7E
3E
00
ENDCHAR
STARTCHAR R
ENCODING 82
SWIDTH 500 0
DWIDTH 8 0
BBX 7 8 0 0
BITMAP
7C
66
66
7C
66
76
76
00
ENDCHAR
STARTCHAR S
ENCODING 83
SWIDTH 500 0
DWIDTH 8 0
BBX 7 8 0 0
BITMAP
3E
62
78
3C
1E
46
7C
00
ENDCHAR
STARTCHAR T
ENCODING 84
SWIDTH 500 0
DWIDTH 8 0
BBX 7 8 0 0
BITMAP
7E
7E
5A
5A
18
3C
7E
00
ENDCHAR
STARTCHAR U
ENCODING 85
SWIDTH 500 0
DWIDTH 8 0
BBX 7 8 0 0
BITMAP
6E
6E
6E
6E
6E
66
3C
00
ENDCHAR
STARTCHAR V
ENCODING 86
SWIDTH 500 0
DWIDTH 8 0
BBX 7 8 0 0
BITMAP
6E
6E
64
6C
68
78
78
00
ENDCHAR
STARTCHAR W
ENCODING 87
SWIDTH 500 0
DWIDTH 8 0
BBX 7 8 0 0
BITMAP
66
66
42
5A
5A
7E
66
00
ENDCHAR
STARTCHAR X
ENCODING 88
SWIDTH 500 0
DWIDTH 8 0
BBX 7 8 0 0
BITMAP
66
66
7E
3C
7E
66
66
00
ENDCHAR
STARTCHAR Y
ENCODING 89
SWIDTH 500 0
DWIDTH 8 0
BBX 7 8 0 0
BITMAP
6E
6E
66
7E
06
76
7E
00
ENDCHAR
STARTCHAR Z
ENCODING 90
SWIDTH 500 0
DWIDTH 8 0
BBX 7 8 0 0
BITMAP
7E
4C
5C
18
3A
32
7E
00
ENDCHAR
STARTCHAR [
ENCODING 91
SWIDTH 500 0
DWIDTH 8 0
BBX 7 8 0 0
BITMAP
3C
20
20
20
20
20
3C
00
ENDCHAR
STARTCHAR BACKSLASH
ENCODING 92
SWIDTH 500 0
DWIDTH 8 0
BBX 7 8 0 0
BITMAP
00
40
20
10
08
04
02
00
ENDCHAR
STARTCHAR ]
ENCODING 93
SWIDTH 500 0
DWIDTH 8 0
BBX 7 8 0 0
BITMAP
3C
04
04
04
04
04
3C
00
ENDCHAR
STARTCHAR ^
ENCODING 94
SWIDTH 500 0
DWIDTH 8 0
BBX 7 8 0 0
BITMAP
08
1C
2A
08
08
08
08
00
ENDCHAR
STARTCHAR _
ENCODING 95
SWIDTH 500 0
DWIDTH 8 0
BBX 7 8 0 0
BITMAP
00
00
00
00
00
00
00
7F
ENDCHAR
STARTCHAR `
ENCODING 96
SWIDTH 500 0
DWIDTH 8 0
BBX 7 8 0 0
BITMAP
10
08
04
00
00
00
00
00
ENDCHAR
STARTCHAR a
ENCODING 97
SWIDTH 500 0
DWIDTH 8 0
BBX 7 8 0 0
BITMAP
00
7E
66
06
7E
66
7E
00
ENDCHAR
STARTCHAR b
ENCODING 98
SWIDTH 500 0
DWIDTH 8 0
BBX 7 8 0 0
BITMAP
70
70
7C
66
76
66
7C
00
ENDCHAR
STARTCHAR c
ENCODING 99
SWIDTH 500 0
DWIDTH 8 0
BBX 7 8 0 0
BITMAP
00
3E
66
60
60
66
3E
00
ENDCHAR
STARTCHAR d
ENCODING 100
SWIDTH 500 0
DWIDTH 8 0
BBX 7 8 0 0
BITMAP
06
06
3E
66
6E
66
3E
00
ENDCHAR
STARTCHAR e
ENCODING 101
SWIDTH 500 0
DWIDTH 8 0
BBX 7 8 0 0
BITMAP
00
3E
62
7E
60
66
3E
00
ENDCHAR
STARTCHAR f
ENCODING 102
SWIDTH 500 0
DWIDTH 8 0
BBX 7 8 0 0
BITMAP
3C
76
76
70
78
70
70
00
ENDCHAR
STARTCHAR g
ENCODING 103
SWIDTH 500 0
DWIDTH 8 0
BBX 7 8 0 0
BITMAP
00
3C
66
66
3E
06
66
7E
ENDCHAR
STARTCHAR h
ENCODING 104
SWIDTH 500 0
DWIDTH 8 0
BBX 7 8 0 0
BITMAP
70
70
66
7E
66
66
66
00
ENDCHAR
STARTCHAR i
ENCODING 105
SWIDTH 500 0
DWIDTH 8 0
BBX 7 8 0 0
BITMAP
1C
00
1C
1C
1C
1C
1C
00
ENDCHAR
STARTCHAR j
ENCODING 106
SWIDTH 500 0
DWIDTH 8 0
BBX 7 8 0 0
BITMAP
0E
00
0E
0E
0E
6E
6E
3C
ENDCHAR
STARTCHAR k
ENCODING 107
SWIDTH 500 0
DWIDTH 8 0
BBX 7 8 0 0
BITMAP
70
70
66
7C
64
76
76
00
ENDCHAR
STARTCHAR l
ENCODING 108
SWIDTH 500 0
DWIDTH 8 0
BBX 7 8 0 0
BITMAP
1C
1C
1C
1C
1C
1C
1C
00
ENDCHAR
STARTCHAR m
ENCODING 109
SWIDTH 500 0
DWIDTH 8 0
BBX 7 8 0 0
BITMAP
00
3E
3E
2A
22
36
36
00
ENDCHAR
STARTCHAR n
ENCODING 110
SWIDTH 500 0
DWIDTH 8 0
BBX 7 8 0 0
BITMAP
00
7C
7E
62
62
76
76
00
ENDCHAR
STARTCHAR o
ENCODING 111
SWIDTH 500 0
DWIDTH 8 0
BBX 7 8 0 0
BITMAP
00
1C
3E
26
32
3E
1C
00
ENDCHAR
STARTCHAR p
ENCODING 112
SWIDTH 500 0
DWIDTH 8 0
BBX 7 8 0 0
BITMAP
00
00
7C
66
66
7E
6C
60
ENDCHAR
STARTCHAR q
ENCODING 113
SWIDTH 500 0
DWIDTH 8 0
BBX 7 8 0 0
BITMAP
00
00
3E
66
66
7E
36
06
ENDCHAR
STARTCHAR r
ENCODING 114
SWIDTH 500 0
DWIDTH 8 0
BBX 7 8 0 0
BITMAP
00
7E
76
70
70
70
70
00
ENDCHAR
STARTCHAR s
ENCODING 115
SWIDTH 500 0
DWIDTH 8 0
BBX 7 8 0 0
BITMAP
00
7E
72
38
1C
4E
7E
00
ENDCHAR
STARTCHAR t
ENCODING 116
SWIDTH 500 0
DWIDTH 8 0
BBX 7 8 0 0
BITMAP
1C
1C
3E
1C
1E
1E
0E
00
ENDCHAR
STARTCHAR u
ENCODING 117
SWIDTH 500 0
DWIDTH 8 0
BBX 7 8 0 0
BITMAP
00
6E
6E
6E
66
7E
7E
00
ENDCHAR
STARTCHAR v
ENCODING 118
SWIDTH 500 0
DWIDTH 8 0
BBX 7 8 0 0
BITMAP
00
66
66
6C
7C
78
78
00
ENDCHAR
STARTCHAR w
ENCODING 119
SWIDTH 500 0
DWIDTH 8 0
BBX 7 8 0 0
BITMAP
00
36
36
22
2A
3E
3E
00
ENDCHAR
STARTCHAR x
ENCODING 120
SWIDTH 500 0
DWIDTH 8 0
BBX 7 8 0 0
BITMAP
00
36
36
1C
36
36
36
00
ENDCHAR
STARTCHAR y
ENCODING 121
SWIDTH 500 0
DWIDTH 8 0
BBX 7 8 0 0
BITMAP
00
6E
6E
66
7E
06
76
7E
ENDCHAR
STARTCHAR z
ENCODING 122
SWIDTH 500 0
DWIDTH 8 0
BBX 7 8 0 0
BITMAP
00
7E
4E
1C
38
72
7E
00
ENDCHAR
STARTCHAR {
ENCODING 123
SWIDTH 500 0
DWIDTH 8 0
BBX 7 8 0 0
BITMAP
08
14
22
7F
00
00
00
00
ENDCHAR
STARTCHAR |
ENCODING 124
SWIDTH 500 0
DWIDTH 8 0
BBX 7 8 0 0
BITMAP
00
00
00
00
00
00
00
00
ENDCHAR
STARTCHAR }
ENCODING 125
SWIDTH 500 0
DWIDTH 8 0
BBX 7 8 0 0
BITMAP
00
00
00
00
00
00
00
00
ENDCHAR
STARTCHAR ~
ENCODING 126
SWIDTH 500 0
DWIDTH 8 0
BBX 7 8 0 0
BITMAP
08
08
08
08
2A
1C
08
00
ENDCHAR
STARTCHAR FULL_BLOCK
ENCODING 127
SWIDTH 500 0
DWIDTH 8 0
BBX 7 8 0 0
BITMAP
7F
7F
7F
7F
7F
7F
7F
7F
ENDCHAR
ENDFONT
